# xmcd
#
# Track frame offsets:
#	150
#	9856
#	19681
#	27598
#	33088
#	44357
#	53989
#	63805
#	76668
#	88227
#
# Disc length: 1359 seconds
#
# Revision: 1
# Processed by: cddbd v1.5.2PL0 Copyright (c) Steve Scherf et al.
# Submitted via: audiograbber 1.83.01
#
DISCID=6b054d0a
DTITLE=Frank McCloud - The Storyteller
DYEAR=2013
DGENRE=Country
TTITLE0=Singin' Man (feat. "Rockin' K")
TTITLE1=Let's Think About Living
TTITLE2=You're My Baby
TTITLE3=Fool About You
TTITLE4=Get Along Little Doggies
TTITLE5=Broken Hearted Gypsy
TTITLE6=My Rifle, My Pony And Me
TTITLE7=Big Iron
TTITLE8=Rock Island Line
TTITLE9=Ramblin' Man
EXTD=
EXTT0=
EXTT1=
EXTT2=
EXTT3=
EXTT4=
EXTT5=
EXTT6=
EXTT7=
EXTT8=
EXTT9=
PLAYORDER=
